# xmcd
#
# Track frame offsets: 
#        150
#        18352
#        43437
#        77469
#        105243
#        131616
#        156060
#        179912
#        205341
#        231708
#
# Disc length: 3378 seconds
#
# Revision: 0
# Processed by: cddbd v1.5.2PL0 Copyright (c) Steve Scherf et al.
# Submitted via: ExactAudioCopyFreeDBPlugin 1.0
#
DISCID=870d300a
DTITLE=SiuBlack - Ru ta ngam ngui
DYEAR=1900
DGENRE=
TTITLE0=Ben em mua xuan
TTITLE1=Ngam ngui
TTITLE2=Nguoi yeu co don
TTITLE3=Tinh yeu kho quen
TTITLE4=Tinh vo tan
TTITLE5=Ru ta ngam ngui
TTITLE6=Bien sau
TTITLE7=Con mua cuoi
TTITLE8=Khong the va co the
TTITLE9=Ngon lua cao nguyen
EXTD=
EXTT0=
EXTT1=
EXTT2=
EXTT3=
EXTT4=
EXTT5=
EXTT6=
EXTT7=
EXTT8=
EXTT9=
PLAYORDER=
